<?xml version="1.0" standalone="no"?>
<!DOCTYPE svg PUBLIC "-//W3C//DTD SVG 20010904//EN"
 "http://www.w3.org/TR/2001/REC-SVG-20010904/DTD/svg10.dtd">
<svg version="1.0" xmlns="http://www.w3.org/2000/svg"
 width="126.000000pt" height="126.000000pt" viewBox="0 0 126.000000 126.000000"
 preserveAspectRatio="xMidYMid meet">
<metadata>
Created by potrace 1.11, written by Peter Selinger 2001-2013
</metadata>
<g transform="translate(0.000000,126.000000) scale(0.100000,-0.100000)"
fill="#000000" stroke="none">
<path d="M578 1073 c123 -2 321 -2 440 0 119 1 19 2 -223 2 -242 0 -340 -1
-217 -2z"/>
<path d="M214 1008 l-19 -23 23 19 c12 11 22 21 22 23 0 8 -8 2 -26 -19z"/>
<path d="M583 805 c-35 -8 -102 -31 -150 -52 -68 -30 -88 -43 -88 -58 0 -19 8
-20 275 -20 267 0 275 1 275 20 0 14 -10 22 -37 28 -22 5 -38 15 -38 23 0 11
27 14 144 14 137 0 146 1 160 22 8 12 13 25 10 30 -9 14 -481 8 -551 -7z"/>
<path d="M286 641 c-10 -11 -15 -25 -11 -30 4 -8 125 -11 374 -11 314 0 370 2
381 15 7 8 10 22 6 30 -5 13 -54 15 -369 15 -347 0 -365 -1 -381 -19z"/>
<path d="M454 575 c-9 -22 2 -32 41 -39 21 -4 35 -13 35 -21 0 -13 -32 -15
-204 -15 -199 0 -205 -1 -220 -22 -8 -12 -13 -25 -10 -30 3 -4 137 -8 297 -8
319 0 349 4 500 61 86 33 124 59 113 78 -5 8 -91 11 -277 11 -226 0 -271 -2
-275 -15z"/>
<path d="M218 183 c122 -2 322 -2 445 0 122 1 22 2 -223 2 -245 0 -345 -1
-222 -2z"/>
</g>
</svg>
